<svg width="100" height="100" viewBox="0 0 100 100" fill="white" xmlns="http://www.w3.org/2000/svg">
<path d="M53.7484 46.1234H55.2783V54.04H53.3285L51.0608 50.3982C50.6727 49.762 50.3419 49.0846 50.3419 49.0846H50.3197V54.04H48.7834V46.1234H50.5837L53.2713 50.4363C53.4508 50.7202 53.6051 51.0193 53.7325 51.3301V46.1234H53.7484ZM62.546 49.3644H59.8806V46.1202H57.9373V54.0368H59.8806V50.659H62.546V54.0368H64.4989V46.1202H62.546V49.3644ZM34.0953 50.5954H36.6207V49.4058H34.0953V47.3448H37.4763V46.1234H32.1456V54.04H37.5335V52.72H34.0953V50.5985V50.5954ZM27.0788 47.9236C27.0337 47.871 27.0051 47.8062 26.9966 47.7374C26.9881 47.6686 27 47.5988 27.0308 47.5368C27.0617 47.4747 27.1102 47.4231 27.1702 47.3884C27.2302 47.3537 27.2991 47.3374 27.3683 47.3416H30.2658V46.1234H26.8371C26.397 46.1094 25.9689 46.2678 25.6439 46.5649C25.3189 46.8619 25.1228 47.2741 25.0973 47.7137C25.0973 48.1781 25.1323 48.5152 25.8288 49.2468L28.4083 51.9503C28.4764 52.0096 28.5245 52.0885 28.5461 52.1761C28.5677 52.2638 28.5618 52.356 28.5291 52.4401C28.4964 52.5243 28.4386 52.5963 28.3635 52.6464C28.2883 52.6965 28.1996 52.7222 28.1093 52.72H24.9287V54.04H28.5674C28.8176 54.0485 29.067 54.0067 29.3009 53.9172C29.5347 53.8277 29.7482 53.6922 29.9288 53.5187C30.1094 53.3452 30.2533 53.1373 30.3522 52.9073C30.4511 52.6772 30.5028 52.4297 30.5044 52.1793C30.5044 51.6545 30.3803 51.3046 29.6901 50.589L27.0788 47.9236ZM44.5977 51.3205C44.4704 51.0097 44.316 50.7107 44.1365 50.4268L41.4489 46.1138H39.6487V54.04H41.1785V49.0941H41.2008C41.2008 49.0941 41.5189 49.7811 41.9196 50.4077L44.1906 54.0495H46.1403V46.1234H44.6104V51.3237L44.5977 51.3205ZM87.568 50.5954H90.0934V49.4058H87.568V47.3448H90.949V46.1234H85.6183V54.04H91.0063V52.72H87.568V50.5985V50.5954ZM99.5622 54.04H97.447L95.9267 50.7894H95.0743V54.04H93.1278V46.1234H96.6773C98.3885 46.1234 99.1837 47.1889 99.1837 48.4198C99.1833 48.8914 99.0361 49.3512 98.7625 49.7354C98.4889 50.1195 98.1025 50.409 97.657 50.5635L99.5622 54.04ZM97.517 48.4707C97.517 48.1049 97.3039 47.3448 96.2766 47.3448H95.0711V49.5966H96.2543C97.323 49.5966 97.517 48.8078 97.517 48.4707ZM80.5261 47.9268C80.481 47.8742 80.4524 47.8094 80.4439 47.7406C80.4354 47.6718 80.4473 47.602 80.4781 47.54C80.509 47.4779 80.5574 47.4263 80.6174 47.3916C80.6774 47.3569 80.7463 47.3406 80.8155 47.3448H83.7131V46.1234H80.2716C79.8316 46.1094 79.4034 46.2678 79.0784 46.5649C78.7535 46.8619 78.5573 47.2741 78.5318 47.7137C78.5318 48.1781 78.5668 48.5152 79.2634 49.2468L81.8429 51.9503C81.9167 52.0074 81.9704 52.0866 81.9962 52.1763C82.022 52.266 82.0185 52.3616 81.9862 52.4492C81.9539 52.5368 81.8946 52.6118 81.8167 52.6634C81.7389 52.715 81.6467 52.7404 81.5534 52.7359H78.3633V54.0559H82.0019C82.2522 54.0644 82.5016 54.0226 82.7354 53.9331C82.9693 53.8436 83.1828 53.7081 83.3634 53.5346C83.5439 53.3611 83.6879 53.1532 83.7868 52.9232C83.8856 52.6931 83.9374 52.4456 83.9389 52.1952C83.9389 51.6704 83.8149 51.3205 83.1247 50.6049L80.5261 47.9268ZM69.1045 50.5985H71.6299V49.4058H69.1076V47.3448H72.4886V46.1234H67.1579V54.04H72.5459V52.72H69.1076V50.5985H69.1045ZM74.6642 54.0432H76.6139V46.1234H74.6642V54.04V54.0432ZM0.437874 43.4008V56.7594H18.2494V43.4008H0.437874ZM10.2406 44.6317C9.18142 45.0388 8.16362 45.9357 7.34302 47.736C7.10447 48.2576 6.656 49.2659 6.45244 49.7175C4.8017 53.3402 3.95565 54.1195 1.46522 54.1195V44.4027H10.196C10.2245 44.401 10.2526 44.4097 10.2751 44.4272C10.2977 44.4446 10.3131 44.4697 10.3185 44.4977C10.324 44.5257 10.3191 44.5547 10.3047 44.5793C10.2904 44.604 10.2676 44.6226 10.2406 44.6317ZM17.238 46.0375V55.7575H8.49123C8.46308 55.7583 8.43559 55.749 8.41373 55.7312C8.39187 55.7135 8.3771 55.6885 8.3721 55.6608C8.36709 55.6331 8.37219 55.6045 8.38646 55.5802C8.40073 55.556 8.42323 55.5376 8.44988 55.5285C9.50903 55.1214 10.5268 54.2244 11.3474 52.4242C11.586 51.9026 12.0344 50.8943 12.238 50.4427C13.8856 46.8199 14.7316 46.0407 17.222 46.0407L17.238 46.0375Z" fill="white"/>
</svg>
