<svg width="100" height="100" viewBox="0 0 100 100" fill="none" xmlns="http://www.w3.org/2000/svg">
<path d="M20.5831 20C15.7511 20 12.1267 23.2591 12.1267 28.0001V30.455C12.1267 35.1323 15.539 38.5822 19.778 38.5822C22.1922 38.5907 24.4666 37.4514 25.903 35.5131V38.2013H29.4001V28.3596H19.9471V31.7037H25.0973C24.6736 33.5451 22.9144 34.9629 20.6679 34.9629C18.4214 34.9629 16.0264 33.122 16.0264 30.455V28.0001C16.0264 25.4813 17.9128 23.6193 20.5618 23.6193C22.618 23.6193 24.4614 24.7411 25.0761 26.3918L28.7853 25.0795C27.7681 21.9681 24.419 20 20.5831 20ZM32.2611 20.3595V38.2013H43.7053V34.6032H36.2663V31.0475H42.9004V27.471H36.2663V23.9576H43.578V20.3595H32.2611V20.3595ZM45.4221 20.3595V23.9576H58.9861V20.3595H45.4221V20.3595ZM50.1909 25.3755V28.6986H54.1965V25.3755H50.1909V25.3755ZM50.1909 30.1164V33.4391H54.1965V30.1164H50.1909ZM50.1909 34.8786V38.2013H54.1965V34.8786H50.1909ZM38.2799 40.7197V44.4654C41.2048 44.4654 43.5358 46.8784 43.5358 49.9898C43.5358 53.1006 41.2048 55.5135 38.2799 55.5135C35.3551 55.5135 33.0238 53.1217 33.0238 49.9898H28.912C28.912 55.1957 33.0661 59.2805 38.2799 59.2805C43.4938 59.2805 47.6474 55.1957 47.6474 49.9898C47.6474 44.7832 43.4938 40.7197 38.2799 40.7197V40.7197ZM12 41.0792L18.7396 52.1906V58.9208H22.7447V52.1482L29.4631 41.0792H24.9494L20.7103 48.3809L16.5351 41.0792H12V41.0792ZM50.1061 41.0792V51.979C50.1061 56.1697 53.2425 59.2805 57.5665 59.2805C61.8897 59.2805 65.0263 56.1697 65.0263 51.979V41.0792H61.0417V52.0425C61.0417 54.0952 59.5584 55.6192 57.5665 55.6192C55.5739 55.6192 54.0906 54.0952 54.0906 52.0425V41.0792H50.1061V41.0792ZM70.1551 41.0792L67.8873 43.4497L69.9642 45.6295L67.9298 47.8517L69.9854 50.0322L67.951 52.2544L70.0278 54.4552L67.9722 56.6562L70.1763 58.942H74.3518L72.1052 56.635L74.1606 54.4128L72.084 52.2332L74.1394 50.011L72.0628 47.8305L74.097 45.6083L72.0204 43.4285L74.3093 41.0792H70.1551ZM75.3688 41.0792V44.6985H77.5518C78.6575 44.8085 79.4998 45.737 79.4998 46.8466C79.4998 47.9562 78.6575 48.8852 77.5518 48.9946H75.3688V52.4232L79.7135 58.9208H84.5884L79.7135 52.1059C82.0968 51.4063 83.7408 49.2315 83.7615 46.7512C83.7615 43.5131 81.0912 41.0792 77.7001 41.0792H75.3688ZM35.2596 41.1851C34.1166 41.1795 33.1838 42.097 33.1723 43.2382V43.2808C33.1838 44.4217 34.1166 45.3389 35.2596 45.3333C36.4026 45.3273 37.3259 44.4009 37.3259 43.2596C37.3259 42.1182 36.4026 41.1912 35.2596 41.1851V41.1851ZM31.5403 44.9103C30.3697 44.9219 29.4303 45.8793 29.4425 47.0478V47.0901C29.448 47.6399 29.6721 48.1654 30.0655 48.5501C30.459 48.9354 30.9894 49.1484 31.5403 49.1429H31.5829C32.7531 49.1312 33.6924 48.174 33.6808 47.0054C33.6686 45.8368 32.7106 44.8987 31.5403 44.9103V44.9103ZM20.5831 61.418C15.7511 61.418 12.1267 64.6771 12.1267 69.4181V71.8733C12.1267 76.5501 15.539 79.9999 19.778 79.9999C22.1922 80.0086 24.4666 78.8693 25.903 76.9316V79.6193H29.4001V69.7776H19.9471V73.1217H25.0973C24.6736 74.9632 22.9144 76.3813 20.6679 76.3813C18.4214 76.3813 16.0264 74.5398 16.0264 71.8733V69.4181C16.0264 66.8998 17.9128 65.0372 20.5618 65.0372C22.618 65.0372 24.4614 66.1588 25.0761 67.8096L28.7853 66.4973C27.7681 63.3863 24.419 61.418 20.5831 61.418V61.418ZM50.2333 61.7569V63.4287H50.2546V63.4925C50.2546 65.1432 51.2506 66.0318 51.8441 66.5608C52.4376 67.0899 52.2677 66.9629 52.2677 67.1112C52.2677 67.2594 52.2678 67.3019 51.8441 67.6827C51.4197 68.0635 50.3389 69.0373 50.2758 70.561V70.8364C50.3389 72.3599 51.2718 73.2063 51.8441 73.7142C52.4164 74.222 52.2677 74.1167 52.2677 74.2644C52.2677 74.4127 52.2678 74.4552 51.8441 74.8359C51.4197 75.2172 50.2546 76.2543 50.2546 77.905V77.9474H50.2333V79.6193H54.2597V78.3705C54.2602 78.0133 54.3881 77.6685 54.6203 77.3971L54.684 77.3335C55.2773 76.8044 56.2735 75.9151 56.2735 74.2644C56.2735 72.6136 55.2773 71.7462 54.684 71.1961C54.0905 70.6458 54.2597 70.8151 54.2597 70.6881C54.2597 70.561 54.3234 70.5187 54.7052 70.1803H54.684C55.2773 69.6512 56.2735 68.7619 56.2735 67.1112C56.2735 65.4604 55.2773 64.5929 54.684 64.0638L54.6203 63.9791C54.3845 63.7179 54.2557 63.3778 54.2597 63.0263V61.7569H50.2333V61.7569ZM58.7952 61.7569V79.6193H64.6873C70.2187 79.6193 74.1394 75.831 74.1394 70.7093C74.1394 65.5875 70.2187 61.7569 64.6873 61.7569H58.7952V61.7569ZM32.1763 61.7992V72.6773C32.1763 76.8892 35.3339 79.9999 39.6573 79.9999C43.9811 79.9999 47.1175 76.8892 47.1175 72.6773V61.7992H43.1332V72.762C43.1332 74.8147 41.6498 76.3177 39.6573 76.3177C37.6654 76.3177 36.1821 74.8147 36.1821 72.762V61.7992H32.1763V61.7992ZM76.5346 61.7992V79.6193H88V76.0423H80.5614V72.466H87.1737V68.9103H80.5614V65.3758H87.8733V61.7992H76.5346V61.7992ZM62.8222 65.3546H65.005C67.9935 65.3546 70.0278 67.6615 70.0278 70.7093C70.0278 73.7566 67.9935 76.0423 65.005 76.0423H62.8222V65.3546Z" fill="white"/>
</svg>
