<svg width="100" height="100" viewBox="0 0 100 100" fill="none" xmlns="http://www.w3.org/2000/svg">
<path d="M21.4525 39.9472C21.3435 39.9386 19.2092 39.908 19.2092 39.908C19.2092 39.908 17.4242 38.2737 17.2479 38.1074C17.1822 38.0455 17.0932 38.0133 17 38L17.0009 63L25 61.1257C25 61.1257 21.7361 40.3205 21.7153 40.1778C21.6945 40.035 21.5614 39.9558 21.4525 39.9472Z" fill="#767679"/>
<path fill-rule="evenodd" clip-rule="evenodd" d="M21.648 40.1632C21.7517 40.1717 21.8767 40.2502 21.8963 40.3916C21.916 40.533 25 61.1426 25 61.1426L17.4408 63L0 60.0186C0 60.0186 2.08117 44.1125 2.1582 43.5525C2.26194 42.8113 2.28709 42.7873 3.08246 42.5403C3.09937 42.5349 3.63531 42.3708 4.4885 42.1097C4.86462 41.9945 5.3024 41.8605 5.78454 41.713C5.95272 40.5221 6.54612 38.984 7.32578 37.7597C8.43396 36.0197 9.8007 35.0401 11.173 35.0013C11.8842 34.9803 12.4776 35.2188 12.9405 35.7082C12.9735 35.7439 13.005 35.7804 13.0364 35.8177C13.0443 35.817 13.0522 35.8164 13.0601 35.8157C13.1259 35.8101 13.1913 35.8045 13.2573 35.8045H13.2612C14.3238 35.8061 15.2033 36.405 15.8037 37.5376C15.99 37.8887 16.1205 38.2383 16.2093 38.5226C16.3452 38.481 16.4669 38.4437 16.5729 38.4113C16.8807 38.3171 17.0553 38.2637 17.0565 38.2631C17.183 38.2258 17.5084 38.1761 17.675 38.3408C17.8416 38.5055 19.5283 40.1244 19.5283 40.1244C19.5283 40.1244 21.545 40.1547 21.648 40.1632ZM14.4687 39.0551C14.7788 38.9602 15.0696 38.8712 15.3361 38.7898C15.1199 38.0953 14.6075 36.9309 13.5661 36.7359C13.8899 37.5617 13.9725 38.5171 13.9827 39.2038C14.1492 39.1529 14.3115 39.1032 14.4687 39.0551ZM10.1583 40.3745L13.0702 39.4835C13.0796 38.7339 12.9971 37.6254 12.6175 36.8423C12.2135 37.007 11.8724 37.2952 11.6288 37.5539C10.9733 38.2491 10.4397 39.3095 10.1583 40.3745ZM12.0257 36.1176C11.7938 35.9669 11.5227 35.8969 11.2004 35.9039C9.08232 35.9645 7.23461 39.2341 6.76222 41.4131C7.1958 41.2808 7.65103 41.1414 8.11887 40.9981C8.45837 40.8942 8.80451 40.7882 9.15385 40.6813C9.42029 39.2971 10.0883 37.8623 10.96 36.9379C11.2963 36.5813 11.6547 36.3079 12.0257 36.1176ZM12.1839 46.6779L13 43.3055C13 43.3055 12.2964 42.9181 10.9213 43.0158C7.35202 43.2643 5.73431 46.0211 5.88996 48.7415C5.99379 50.5576 6.96254 51.3168 7.81162 51.9822C8.47401 52.5013 9.06357 52.9634 9.11288 53.8256C9.13991 54.301 8.87251 54.9732 8.12429 55.0256C6.97862 55.1055 5.54728 53.9128 5.54728 53.9128L5 56.4839C5 56.4839 6.42186 58.1665 9.00477 57.9865C11.1565 57.8364 12.65 55.9351 12.4915 53.1558C12.3695 51.0189 11.007 50.054 9.93021 49.2914C9.22665 48.7931 8.64501 48.3812 8.61095 47.7852C8.59484 47.5084 8.61165 46.406 10.1943 46.2954C11.2735 46.2204 12.1839 46.6779 12.1839 46.6779Z" fill="white"/>
<path d="M34.596 50.2471C33.6723 49.761 33.1976 49.3513 33.1976 48.7881C33.1976 48.0715 33.857 47.6111 34.8868 47.6111C36.0855 47.6111 37.1558 48.0971 37.1558 48.0971L38 45.5889C38 45.5889 37.2238 45 34.939 45C31.7594 45 29.5558 46.7659 29.5558 49.2484C29.5558 50.656 30.5847 51.731 31.9574 52.4982C33.0659 53.112 33.4619 53.5475 33.4619 54.187C33.4619 54.8522 32.9076 55.3897 31.8787 55.3897C30.3453 55.3897 28.8972 54.6216 28.8972 54.6216L28 57.1299C28 57.1299 29.3379 58 31.5888 58C34.8611 58 37.2097 56.4389 37.2097 53.6238C37.2089 52.115 36.0217 51.04 34.596 50.2471Z" fill="white"/>
<path d="M46.4097 45.234C45.0118 45.234 43.9119 45.9746 43.0645 47.0976L43.0184 47.0719L44.2327 40H41.0703L38 57.9992H41.1624L42.2163 51.8466C42.6285 49.523 43.7054 48.0939 44.714 48.0939C45.424 48.0939 45.6995 48.6301 45.6995 49.3963C45.6995 49.8813 45.6535 50.4688 45.5621 50.9537L44.3708 58H47.5334L48.7704 50.7237C48.9081 49.9574 49 49.0389 49 48.4257C48.9987 46.4339 48.0593 45.234 46.4097 45.234Z" fill="white"/>
<path d="M57.153 45C52.8501 45 50 48.8238 50 53.0806C50 55.808 51.7101 58 54.9244 58C59.149 58 62 54.2786 62 49.9194C62 47.3961 60.4964 45 57.153 45ZM55.3906 55.299C54.1723 55.299 53.6539 54.2794 53.6539 53.0045C53.6539 50.991 54.7169 47.7026 56.6606 47.7026C57.9307 47.7026 58.3447 48.7734 58.3447 49.8186C58.3447 51.985 57.2831 55.299 55.3906 55.299Z" fill="white"/>
<path d="M70.5036 45C68.21 45 66.9085 47.003 66.9085 47.003H66.8598L67.0569 45.1955H64.053C63.9055 46.4171 63.634 48.2729 63.3638 49.6654L61 62H64.3981L65.333 57.0171H65.4075C65.4075 57.0171 66.1046 57.4565 67.4019 57.4565C71.3904 57.4565 74 53.4023 74 49.2982C74 47.0276 72.9901 45 70.5036 45ZM67.2535 54.9167C66.3715 54.9167 65.8494 54.4282 65.8494 54.4282L66.4159 51.2774C66.8101 49.177 67.9179 47.7844 69.1 47.7844C70.1342 47.7844 70.454 48.7368 70.454 49.6409C70.454 51.8149 69.1492 54.9167 67.2535 54.9167Z" fill="white"/>
<path d="M78.6012 40C77.7096 40 77 40.9397 77 42.1475C77 43.2482 77.5269 44 78.3175 44H78.358C79.2299 44 79.9796 43.2212 80 41.8525C80 40.7787 79.4527 40 78.6012 40Z" fill="white"/>
<path d="M74 58H77.5682L80 46H76.4047L74 58Z" fill="white"/>
<path d="M88.3986 45.6644H85.9176L86.0464 45.085C86.2533 43.9019 86.9771 42.8444 88.1657 42.8444C88.8001 42.8444 89.3022 43.0207 89.3022 43.0207L90 40.3019C90 40.3019 89.3799 40 88.0615 40C86.7952 40 85.5299 40.3525 84.5732 41.1578C83.3586 42.1648 82.79 43.6245 82.506 45.085L82.4033 45.6644H80.7489L80.2319 48.2828H81.8864L80 58H83.5664L85.4528 48.2828H87.9077L88.3986 45.6644Z" fill="white"/>
<path d="M96.4209 46.0008C96.4209 46.0008 94.2764 51.1973 93.3135 54.0339H93.2634C93.1982 53.1204 92.4183 46.0008 92.4183 46.0008H88.8137L90.8778 56.7353C90.9279 56.9741 90.9029 57.1182 90.8032 57.2855C90.4047 58.0264 89.734 58.744 88.9384 59.2702C88.2923 59.7243 87.5715 60.011 87 60.2024L87.9444 63C88.6407 62.8567 90.0818 62.3064 91.2999 61.2068C92.8664 59.7964 94.3076 57.6203 95.7989 54.6554L100 46H96.4209V46.0008Z" fill="white"/>
</svg>
