<svg width="100" height="100" viewBox="0 0 100 100" fill="none" xmlns="http://www.w3.org/2000/svg">
<path fill-rule="evenodd" clip-rule="evenodd" d="M13 45.5H8.375V50.625C8.375 51.5 8.5 52.625 9.25 53.125C10 53.625 11.125 53.5 12 53.375C12.5 53.375 12.75 53.25 13 53V56.875C12.6875 56.9375 12.4062 57 12.125 57.0625C11.8438 57.125 11.5625 57.1875 11.25 57.25C8 57.625 3.25 57 3.25 52.75V45.5H0V41.75H3.25V37.25H8.375V41.75H13V45.5ZM26.125 41.75H30.75V57H26.125V41.75ZM25.875 37.625C25.875 36.25 27 35.125 28.375 35.125C29.75 35.125 30.875 36.25 30.875 37.625C30.875 39 29.75 40.125 28.375 40.125C27.125 40.125 25.875 39 25.875 37.625ZM31.375 41.75H36.375L40.25 52.125H40.375L43.875 41.75H48.625L42.625 57H37.625L31.375 41.75ZM87.25 53.25C85.125 53.25 83.875 51.375 83.875 49.375C83.875 47.25 85 45.5 87.25 45.5C89.375 45.5 90.625 47.375 90.625 49.375C90.625 51.5 89.5 53.25 87.25 53.25ZM84.5 41.875C81.375 43 79.625 46.125 79.625 49.375C79.625 53.125 81.875 56.5 85.75 57.125C89 57.75 92.5 56.375 94 53.375C95.5 50.5 95.25 46.75 93.375 44.25C91.375 41.625 87.625 40.75 84.5 41.875ZM97.125 46C96 46 95.125 45.125 95.125 44C95.125 42.875 96 42 97.125 42C98.25 42 99.125 42.875 99.125 44C99.25 45 98.25 46 97.125 46ZM97.125 41.375C95.75 41.375 94.625 42.5 94.625 43.875C94.625 45.25 95.75 46.375 97.125 46.375C98.5 46.375 99.625 45.25 99.625 43.875C99.625 42.5 98.625 41.375 97.125 41.375ZM97.5 43.5C97.5 43.25 97.25 43.25 97 43.25H96.75V43.75H96.875C97.25 43.75 97.5 43.75 97.5 43.5ZM98.5 45.125H97.75L97.125 44.25H96.875V45.125H96.25V42.75H97.625C98.125 42.875 98.375 43.375 98 43.875C97.875 44 97.75 44.125 97.625 44.125L98.5 45.125ZM74.625 43.75V41.625H78.75V55.875C78.75 58.875 78.25 61 76.75 62.5C74.25 65.125 69.625 65.125 66.25 64.25C65 63.875 63.875 63.375 62.625 62.5L64.75 59.125C65.625 59.75 66.625 60.125 67.5 60.375C69.25 60.75 71.75 60.875 73.125 59.5C73.75 58.875 74 58 74 56.875V55.375C73.75 55.75 73.125 56.5 72.125 56.875C70 57.75 67.5 57.5 65.625 56.25C64 55.125 63.25 53 63 51.125C62.75 49 62.875 46.625 63.875 44.75C65.75 41 71 40.5 74 43.125C74.25 43.5 74.375 43.625 74.5 43.75H74.625ZM68.5 52.125C69.75 53.625 72.25 53.625 73.5 52.125C74.75 50.625 74.75 48 73.5 46.5C72.25 45 69.75 45 68.5 46.5C67.25 48 67.25 50.625 68.5 52.125ZM14.25 41.75H19V44.25C19.5 43.25 20.125 42.625 20.75 42.125C22.25 41.125 24.625 41.5 24.875 41.625V45.875C23.875 45.625 21.875 45.25 20.5 46.125C19.625 46.625 18.875 47.375 18.875 50.75V57.125H14.125V41.75H14.25ZM52.25 53.5C51.375 52.625 52.125 51.5 53 50.875C53.8822 50.3457 55.8853 50.3145 56.9436 50.298C57.3321 50.2919 57.5932 50.2878 57.625 50.2618V51.25C57.625 52.625 56.75 53.5 55.625 53.875C54.625 54.25 53.125 54.375 52.25 53.5ZM55.625 56.875C56.5 56.5 57.125 55.875 57.75 55.125V57H62V49.25V49.2499C62 48 62 46.875 61.75 45.875C61.25 43.875 60 42.25 58 41.75C56 41.125 53.5 41.25 51.5 42C50.25 42.5 49.25 43.125 48.375 43.875L50.875 46.5C51.375 45.875 52 45.5 52.625 45.125C54 44.5 55.75 44.375 56.875 45.375C57.5 45.875 57.75 46.5 57.75 47.375H55.625C52.25 47.5 47.5 48.375 47.5 52.75C47.5 56.875 52.25 58.25 55.625 56.875Z" fill="#87878B"/>
</svg>
