<svg width="100" height="100" viewBox="0 0 100 100" fill="none" xmlns="http://www.w3.org/2000/svg">
<path d="M17.0945 42.5438L30.8357 62.4005H33.3557V36.5245H30.2996V56.2014L16.9949 37.0118L16.6579 36.5245H15.2179L15.1949 36.4945V36.5245H14.0383V62.4005H17.0945V42.5438ZM53.4851 52.0486C58.1345 49.2901 59.9574 46.9214 59.9574 43.5857C59.9574 39.0057 56.794 36.0448 51.9149 36.0448C50.1076 36.0448 48.3395 36.5603 46.8268 37.5281C45.3142 38.496 44.1224 39.8742 43.3974 41.4943L42.9379 42.4988L45.703 43.7431L46.1702 42.7761C46.6439 41.67 47.4397 40.7248 48.4585 40.0583C49.4774 39.3918 50.6741 39.0336 51.8996 39.0282C54.9634 39.0282 56.84 40.7372 56.84 43.6082C56.84 45.4522 56.0204 47.0863 51.9609 49.53C44.7149 53.8776 43.114 55.8191 42.9226 60.4741V62.423H59.8732V59.4246H46.086C46.3617 57.0409 47.434 55.6542 53.4851 52.0486ZM77.1915 45.5721C74.9018 45.6472 72.6962 46.435 70.8953 47.8209C71.3702 42.2439 73.8826 38.9757 77.7889 38.9757C78.6479 38.9578 79.5018 39.1084 80.3004 39.4186C81.0989 39.7289 81.8258 40.1926 82.4383 40.7822L83.3115 41.5318L85.2953 39.2455L84.4221 38.4959C82.6089 36.8783 80.2346 35.9965 77.7813 36.0298C71.6 36.0298 67.7626 41.3294 67.7626 49.8598C67.7626 59.4471 72.6187 62.8653 77.1609 62.8653C82.9362 62.8803 86 58.3977 86 53.9676C86 47.7684 81.2587 45.5721 77.1915 45.5721ZM82.9362 53.9676C82.9362 56.9285 80.96 59.9194 77.1838 59.9194C74.6179 59.9194 71.4621 57.783 70.903 51.7863C72.0136 50.482 74.4111 48.5255 77.2145 48.5255C82.354 48.533 82.9362 52.3335 82.9362 53.9676ZM14 65.7737H33.394V68H14V65.7737ZM14.0689 31H33.394V33.2263H14.0689V31Z" fill="#87878B"/>
</svg>
