<svg width="100" height="100" viewBox="0 0 100 100" fill="none" xmlns="http://www.w3.org/2000/svg">
<path d="M90 50.0223C90 49.8157 90 49.6018 90 49.3804C90 49.1445 89.9775 48.9157 89.9324 48.6945C89.9023 48.4731 89.8797 48.2518 89.8647 48.0305C89.8496 47.8092 89.8197 47.6027 89.7745 47.4109H77.2154L73.4047 53.2753H83.0553C82.7696 54.2638 82.3562 55.1638 81.8152 55.9751C81.289 56.7719 80.6576 57.4652 79.9211 58.0553V58.0775C79.1545 58.6676 78.3051 59.1323 77.3732 59.4717C76.4563 59.7963 75.4792 59.9586 74.442 59.9586C74.4119 59.9586 74.3818 59.9586 74.3517 59.9586C74.3367 59.9586 74.3291 59.9586 74.3291 59.9586C72.9763 59.9586 71.6985 59.6931 70.496 59.1619C69.2935 58.6308 68.2638 57.9226 67.4069 57.0374C66.5201 56.1079 65.8212 55.0456 65.31 53.8506C64.7989 52.6556 64.5434 51.3796 64.5434 50.0223C64.5434 50.0075 64.5434 50.0001 64.5434 50.0001C64.5434 49.9853 64.5434 49.9632 64.5434 49.9337C64.5434 48.5911 64.7989 47.3297 65.31 46.1495C65.8212 44.9545 66.5276 43.9144 67.4295 43.0291C68.3164 42.144 69.3612 41.4358 70.5637 40.9047C71.7663 40.3736 73.044 40.108 74.3969 40.108C74.3969 40.108 74.4046 40.108 74.4194 40.108C74.4345 40.108 74.442 40.108 74.442 40.108C74.442 40.108 74.4497 40.108 74.4644 40.108C74.4945 40.108 74.5096 40.108 74.5096 40.108C75.0808 40.108 75.6446 40.1597 76.2007 40.2629C76.7719 40.3514 77.3206 40.4842 77.8466 40.6612L77.7339 40.6169C78.2752 40.8087 78.7786 41.03 79.2446 41.2808C79.7106 41.5317 80.1465 41.8046 80.5525 42.0997V42.0775L82.2436 39.444L83.9347 36.7884C83.3033 36.3606 82.6268 35.977 81.9053 35.6377C81.1989 35.2984 80.4622 35.0107 79.6956 34.7746L79.5829 34.7303C78.8313 34.5238 78.027 34.3615 77.1703 34.2435C76.3134 34.1107 75.4491 34.0443 74.5773 34.0443C74.5472 34.0443 74.5246 34.0443 74.5096 34.0443C74.5096 34.0443 74.4945 34.0443 74.4644 34.0443C74.4495 34.0443 74.4269 34.0443 74.3969 34.0443C74.3818 34.0443 74.3592 34.0443 74.3291 34.0443C73.1718 34.0443 72.0443 34.1476 70.9469 34.3541C69.8647 34.5607 68.8124 34.8705 67.7903 35.2836L67.9256 35.2393C66.9334 35.6671 66.0091 36.1614 65.1522 36.722C64.2954 37.2826 63.5138 37.9096 62.8072 38.603C61.9655 39.4735 61.2513 40.3292 60.6651 41.1701C60.094 42.0405 59.6204 42.8889 59.2447 43.715C58.8689 44.5412 58.5607 45.3748 58.3203 46.2157C58.0947 47.0272 57.8917 47.8312 57.7115 48.6279C57.3657 50.1918 57.0049 51.6819 56.6292 53.0981C56.2533 54.5145 55.4791 55.7907 54.3067 56.9266C53.8558 57.384 53.3597 57.8044 52.8185 58.1881C52.2924 58.5568 51.7437 58.8667 51.1725 59.1174L51.1048 59.1617C50.5336 59.3831 49.9324 59.5602 49.301 59.6929C48.6847 59.8257 48.0309 59.892 47.3394 59.892C47.3394 59.892 47.3243 59.892 47.2942 59.892C47.2792 59.892 47.2717 59.892 47.2717 59.892C45.8738 59.892 44.5584 59.6265 43.3258 59.0954C42.0932 58.5642 41.0109 57.8413 40.0789 56.9266C39.177 56.0562 38.4555 55.0161 37.9143 53.8064C37.3732 52.5818 37.1027 51.2834 37.1027 49.9114C37.1027 48.5836 37.3657 47.3296 37.8917 46.1493C38.4179 44.9543 39.1394 43.9142 40.0563 43.029C40.9733 42.1291 42.0481 41.4135 43.2807 40.8824C44.5133 40.3365 45.8287 40.0636 47.2267 40.0636C47.8129 40.0636 48.384 40.1153 48.9403 40.2185C49.4965 40.307 50.0451 40.4324 50.5863 40.5947H50.496C51.0372 40.757 51.5333 40.9636 51.9843 41.2144C52.4352 41.4504 52.8711 41.716 53.292 42.011H53.2469L54.9605 39.3776L56.6967 36.6999C56.0804 36.2868 55.4114 35.9106 54.6899 35.5712C53.9835 35.2319 53.2394 34.9442 52.4577 34.7082H52.3675C51.6159 34.4721 50.8116 34.2951 49.9549 34.177C49.113 34.059 48.2487 34 47.3619 34C47.3469 34 47.3243 34 47.2942 34C47.2791 34 47.2641 34 47.2492 34C47.2492 34 47.2414 34 47.2266 34C47.2115 34 47.204 34 47.204 34C45.806 34 44.4532 34.1697 43.1453 34.509C41.8527 34.8336 40.6351 35.2909 39.4926 35.881L39.5603 35.8589C38.4329 36.4195 37.3957 37.1055 36.4487 37.917C35.5016 38.7284 34.6599 39.621 33.9233 40.5947L33.8782 40.6168C33.5776 39.7316 33.1416 38.9276 32.5704 38.2047C31.9992 37.467 31.3227 36.8548 30.541 36.3679H30.5185C29.6918 35.8368 28.7824 35.4237 27.7902 35.1286C26.7982 34.8188 25.7609 34.6639 24.6786 34.6639C24.6335 34.6639 24.596 34.6639 24.5659 34.6639C24.5358 34.6639 24.5132 34.6639 24.4983 34.6639H10V65.336H26.009C26.0391 65.336 26.0691 65.336 26.0992 65.336C26.1293 65.336 26.1519 65.336 26.1669 65.336C27.129 65.336 28.0459 65.218 28.9177 64.982C29.7895 64.7606 30.6164 64.4434 31.398 64.0304L31.3303 64.0525C32.0669 63.6541 32.7283 63.1821 33.3145 62.6361C33.9158 62.0755 34.4194 61.4559 34.8252 60.7772L34.8703 60.7108C35.5918 61.5223 36.3961 62.2452 37.2829 62.8796C38.1699 63.5139 39.1094 64.0672 40.1015 64.5394L40.2142 64.5614C41.2063 65.004 42.2736 65.3507 43.4161 65.6015C44.5584 65.8672 45.7459 65.9999 46.9785 65.9999C46.9785 65.9999 46.9863 65.9999 47.0011 65.9999C47.0162 65.9999 47.0312 65.9999 47.0462 65.9999C47.0763 65.9999 47.0989 65.9999 47.1138 65.9999C47.1289 65.9999 47.1515 65.9999 47.1816 65.9999C48.5795 65.9999 49.9399 65.8302 51.2627 65.4909C52.5856 65.1663 53.8182 64.6942 54.9605 64.0747L54.8929 64.141C56.0654 63.5361 57.1251 62.8206 58.0721 61.9944C59.0192 61.1535 59.861 60.224 60.5976 59.2061L60.6201 59.1396C61.3416 60.1723 62.1683 61.1092 63.1003 61.9502C64.0473 62.7763 65.0696 63.4844 66.1668 64.0747L66.2345 64.1189C67.377 64.709 68.6096 65.1664 69.9324 65.491C71.2551 65.8303 72.6305 66 74.0586 66C74.0586 66 74.0663 66 74.0812 66C74.0962 66 74.1188 66 74.1489 66C74.1638 66 74.1789 66 74.1939 66C74.2089 66 74.2165 66 74.2165 66C75.3138 66 76.3811 65.8894 77.4183 65.668C78.4556 65.4467 79.4476 65.1296 80.3946 64.7164C81.3567 64.3181 82.2586 63.8312 83.1003 63.2559C83.9422 62.6657 84.7163 62.0092 85.4228 61.2863C86.1443 60.5782 86.7831 59.7962 87.3394 58.9406C87.8955 58.0995 88.3691 57.207 88.7598 56.2627C89.1507 55.3186 89.4514 54.3301 89.6619 53.2974C89.8873 52.2794 90 51.2172 90 50.1106C90 50.0959 90 50.0811 90 50.0663C90 50.0517 90 50.0369 90 50.0221L90 50.0223ZM16.7419 47.1232V40.3293H24.4308C24.4458 40.3293 24.4533 40.3293 24.4533 40.3293C24.9344 40.3293 25.3778 40.4178 25.7836 40.5949C26.1896 40.7571 26.5578 40.9932 26.8885 41.303H26.8659C27.1816 41.6128 27.4222 41.9669 27.5876 42.3652C27.7678 42.7636 27.8581 43.1914 27.8581 43.6488C27.8581 43.6488 27.8581 43.6564 27.8581 43.6709C27.8581 43.6857 27.8581 43.6931 27.8581 43.6931C27.8581 43.7226 27.8581 43.7374 27.8581 43.7374C27.8581 43.7374 27.8581 43.7522 27.8581 43.7817C27.8581 44.2243 27.7678 44.6522 27.5876 45.0652C27.4222 45.4636 27.1891 45.8177 26.8885 46.1275H26.8659C26.5503 46.4373 26.1896 46.6807 25.7836 46.8578C25.3778 47.0348 24.9344 47.1233 24.4533 47.1233C24.4533 47.1233 24.4456 47.1233 24.4308 47.1233L16.7419 47.1232ZM16.7419 59.6709V52.6999H25.9189C25.9339 52.6999 25.9414 52.6999 25.9414 52.6999C26.4375 52.6999 26.9035 52.7884 27.3394 52.9655C27.7904 53.1425 28.1888 53.3787 28.5344 53.6737C28.8652 53.9834 29.1283 54.3523 29.3236 54.7801C29.5191 55.2079 29.6167 55.6579 29.6167 56.13C29.6167 56.13 29.6167 56.1376 29.6167 56.1522C29.6167 56.6539 29.519 57.1186 29.3236 57.5464C29.1283 57.9742 28.8576 58.3505 28.512 58.675C28.1813 58.9996 27.7904 59.2505 27.3394 59.4274C26.9035 59.6045 26.43 59.6931 25.9189 59.6931H16.7419V59.6709Z" fill="#87878B"/>
</svg>
