<svg width="100" height="100" viewBox="0 0 100 100" fill="none" xmlns="http://www.w3.org/2000/svg">
<g clip-path="url(#clip0)">
<path d="M10.9946 55.8707C11.2254 55.8707 11.4452 55.8158 11.654 55.6949L14.0611 54.31C14.5447 54.0352 15.1052 53.9143 15.6658 53.9803C18.5894 54.321 20.6337 54.8705 21.2382 55.0464C21.3591 55.0794 21.502 55.0354 21.579 54.9365C21.6779 54.8156 21.7988 54.6177 21.8977 54.332C21.9856 54.0572 21.9966 53.8264 21.9856 53.6615C21.9746 53.5296 21.8867 53.4087 21.7548 53.3757C20.8096 53.101 16.622 51.9689 10.9946 51.9689C5.36715 51.9689 1.17956 53.101 0.234329 53.3757C0.102436 53.4087 0.0145082 53.5296 0.0035171 53.6615C-0.00747395 53.8154 0.00351744 54.0462 0.0914459 54.332C0.179374 54.6177 0.311267 54.8156 0.410187 54.9365C0.487124 55.0354 0.630008 55.0794 0.750909 55.0464C1.35542 54.8705 3.41075 54.321 6.32337 53.9803C6.88392 53.9143 7.44446 54.0352 7.92807 54.31L10.3351 55.6949C10.5439 55.8158 10.7748 55.8707 10.9946 55.8707Z" fill="#87878B"/>
<path d="M6.98285 48.0781C7.11474 48.3089 7.32357 48.4627 7.56538 48.5287C7.80718 48.5946 8.05997 48.5617 8.29079 48.4298C8.5216 48.2979 8.67547 48.089 8.74142 47.8472C8.80737 47.6054 8.77439 47.3526 8.6425 47.1218L6.47726 43.3739C6.41132 43.253 6.26843 43.209 6.13654 43.22C5.96068 43.231 5.71888 43.3189 5.43311 43.4838C5.14734 43.6487 4.94951 43.8135 4.85059 43.9564C4.77365 44.0663 4.75167 44.2092 4.81761 44.3301L6.98285 48.0781Z" fill="#87878B"/>
<path d="M5.0044 50.7599C5.23521 50.8918 5.499 50.9137 5.72981 50.8588C5.97161 50.7928 6.18044 50.639 6.31234 50.4082C6.44423 50.1773 6.46621 49.9136 6.41126 49.6827C6.3563 49.4519 6.19144 49.2321 5.96062 49.1002L2.21267 46.935C2.09177 46.869 1.94889 46.891 1.83898 46.968C1.69609 47.0669 1.53123 47.2647 1.36636 47.5505C1.2015 47.8363 1.11357 48.0781 1.10258 48.2539C1.09159 48.3968 1.14654 48.5287 1.25645 48.5946L5.0044 50.7599Z" fill="#87878B"/>
<path d="M11.9508 46.7481C11.9508 47.0119 11.8409 47.2537 11.676 47.4296C11.5001 47.6054 11.2693 47.7044 10.9946 47.7044C10.7308 47.7044 10.489 47.5944 10.3131 47.4296C10.1372 47.2537 10.0383 47.0229 10.0383 46.7481V42.4287C10.0383 42.2858 10.1263 42.1759 10.2582 42.1209C10.412 42.044 10.6648 42 10.9946 42C11.3243 42 11.5771 42.044 11.731 42.1209C11.8519 42.1868 11.9508 42.2858 11.9508 42.4287V46.7481Z" fill="#87878B"/>
<path d="M15.0064 48.0781C14.8745 48.3089 14.6657 48.4627 14.4239 48.5287C14.1821 48.5946 13.9293 48.5617 13.6984 48.4298C13.4676 48.2979 13.3138 48.089 13.2478 47.8472C13.1819 47.6054 13.2148 47.3526 13.3467 47.1218L15.512 43.3739C15.5779 43.253 15.7208 43.209 15.8527 43.22C16.0286 43.231 16.2704 43.3189 16.5561 43.4838C16.8419 43.6487 17.0397 43.8135 17.1387 43.9564C17.2156 44.0663 17.2376 44.2092 17.1716 44.3301L15.0064 48.0781Z" fill="#87878B"/>
<path d="M16.9847 50.7599C16.7539 50.8918 16.4902 50.9137 16.2593 50.8588C16.0175 50.7928 15.8087 50.639 15.6768 50.4082C15.5449 50.1773 15.5229 49.9136 15.5779 49.6827C15.6438 49.4409 15.7977 49.2321 16.0285 49.1002L19.7765 46.935C19.8974 46.869 20.0403 46.891 20.1502 46.968C20.2931 47.0669 20.4579 47.2647 20.6228 47.5505C20.7877 47.8363 20.8756 48.0781 20.8866 48.2539C20.8976 48.3968 20.8426 48.5287 20.7327 48.5946L16.9847 50.7599Z" fill="#87878B"/>
<path d="M40.8902 47.7813H42.6928C42.7587 47.7813 42.8137 47.8253 42.8466 47.8802L44.6382 52.4745L46.3748 47.8802C46.3968 47.8143 46.4627 47.7813 46.5287 47.7813H48.2982C48.4191 47.7813 48.4961 47.9022 48.4411 48.0011L44.0447 58.0909C44.0227 58.1459 43.9567 58.1898 43.9018 58.1898H42.3411C42.2311 58.1898 42.1432 58.0689 42.1982 57.97L43.704 54.4419L40.7583 48.0011C40.6924 47.9022 40.7693 47.7813 40.8902 47.7813Z" fill="#87878B"/>
<path d="M67.4996 48.8034V47.9461C67.4996 47.8582 67.5765 47.7813 67.6645 47.7813H69.2582C69.3461 47.7813 69.423 47.8582 69.423 47.9461V54.7936C69.423 54.8815 69.3461 54.9584 69.2582 54.9584H67.6645C67.5765 54.9584 67.4996 54.8815 67.4996 54.7936V53.8923C67.1589 54.4199 66.4115 55.1123 65.1915 55.1123C62.8614 55.1123 61.6523 53.3318 61.6523 51.3424C61.6523 48.7485 63.4549 47.6384 65.1365 47.6384C66.2466 47.6274 67.016 48.155 67.4996 48.8034ZM63.5758 51.3534C63.5758 52.5844 64.3342 53.5296 65.5542 53.5296C66.7742 53.5296 67.5545 52.7053 67.5545 51.4413C67.5545 50.1773 66.7962 49.2101 65.4992 49.2101C64.2792 49.2101 63.5758 50.1553 63.5758 51.3534Z" fill="#87878B"/>
<path d="M70.8628 54.7936V47.9461C70.8628 47.8582 70.9397 47.7813 71.0277 47.7813H72.6214C72.7093 47.7813 72.7862 47.8582 72.7862 47.9461V48.8804C73.1599 48.2319 73.8634 47.6384 75.0614 47.6384C76.2924 47.6384 77.6663 48.2429 77.6663 51.0236V54.7936C77.6663 54.8815 77.5893 54.9584 77.5014 54.9584H75.9077C75.8198 54.9584 75.7428 54.8815 75.7428 54.7936V51.0566C75.7428 50.3862 75.578 49.2321 74.3909 49.2321C73.2039 49.2321 72.7862 50.2762 72.7862 51.2435V54.7936C72.7862 54.8815 72.7093 54.9584 72.6214 54.9584H71.0277C70.9287 54.9474 70.8628 54.8815 70.8628 54.7936Z" fill="#87878B"/>
<path d="M79.0292 54.7936V47.9461C79.0292 47.8582 79.1061 47.7813 79.194 47.7813H80.7877C80.8757 47.7813 80.9526 47.8582 80.9526 47.9461V48.8804C81.3263 48.2319 82.0297 47.6384 83.2278 47.6384C84.4588 47.6384 85.8326 48.2429 85.8326 51.0236V54.7936C85.8326 54.8815 85.7557 54.9584 85.6678 54.9584H84.0741C83.9861 54.9584 83.9092 54.8815 83.9092 54.7936V51.0566C83.9092 50.3862 83.7443 49.2321 82.5573 49.2321C81.3703 49.2321 80.9526 50.2762 80.9526 51.2435V54.7936C80.9526 54.8815 80.8757 54.9584 80.7877 54.9584H79.194C79.1061 54.9474 79.0292 54.8815 79.0292 54.7936Z" fill="#87878B"/>
<path d="M95.7685 47.7813H97.3182C97.4062 47.7813 97.4831 47.8582 97.4831 47.9462V49.364C97.7909 47.9572 98.9999 47.4736 99.8792 47.6824C99.9561 47.6934 100 47.7593 100 47.8363V49.397C100 49.4959 99.9121 49.5728 99.8022 49.5509C98.1755 49.2321 97.5161 50.1114 97.5161 51.3424C97.5161 52.2217 97.5161 54.2111 97.5161 54.7936C97.5161 54.8815 97.4391 54.9585 97.3512 54.9585H95.7575C95.6696 54.9585 95.5927 54.8815 95.5927 54.7936V47.9462C95.6036 47.8582 95.6806 47.7813 95.7685 47.7813Z" fill="#87878B"/>
<path d="M30.3279 49.3423C29.8333 49.1775 29.5695 49.0785 29.1738 48.9466C28.7671 48.8038 28.0747 48.4081 28.0747 47.7706C28.0747 47.1331 28.5143 46.7265 29.4046 46.7265C30.218 46.7265 30.6686 47.1221 30.9653 47.7596C31.0093 47.8475 31.1082 47.8805 31.1962 47.8366L32.5041 47.0782C32.57 47.0342 32.603 46.9463 32.57 46.8693C32.1744 46.001 31.2511 44.9569 29.4266 44.9569C27.3932 44.9569 26.1183 46.1659 26.1183 47.7596C26.1183 49.3423 27.1624 50.1667 28.5803 50.6503C29.0969 50.8261 29.3057 50.9031 29.7453 51.0459C30.5807 51.3317 30.9653 51.7054 30.9653 52.222C30.9653 52.7386 30.6356 53.3541 29.3387 53.3541C28.1516 53.3541 27.734 52.7276 27.4922 52.1341C27.4592 52.0461 27.3493 52.0022 27.2614 52.0571L25.8875 52.8485C25.8215 52.8924 25.7886 52.9694 25.8215 53.0463C26.3491 54.3433 27.7889 55.1126 29.4046 55.1126C31.3061 55.1126 32.9108 54.1454 32.9108 52.189C32.9108 50.2326 30.8225 49.5072 30.3279 49.3423Z" fill="#87878B"/>
<path d="M40.8244 53.079C40.7804 53.002 40.6705 52.9691 40.5936 53.024C39.9781 53.4746 39.2527 53.4856 38.7031 52.6393C38.2415 51.9249 37.6809 51.0456 37.6809 51.0456L40.099 48.0451C40.1869 47.9351 40.11 47.7813 39.9781 47.7813H38.0876C38.0326 47.7813 37.9887 47.8033 37.9557 47.8472L35.8674 50.7159V44.9456C35.8674 44.8577 35.7905 44.7807 35.7025 44.7807H34.1088C34.0209 44.7807 33.944 44.8577 33.944 44.9456V54.7936C33.944 54.8815 34.0209 54.9584 34.1088 54.9584H35.7135C35.8015 54.9584 35.8784 54.8815 35.8784 54.7936V51.5952C35.8784 51.5952 36.9445 53.2768 37.3512 53.9033C37.9008 54.7606 38.6701 55.1123 39.5054 55.1123C40.2968 55.1123 40.8024 54.9035 41.4069 54.31C41.4619 54.255 41.4728 54.1781 41.4399 54.1121L40.8244 53.079Z" fill="#87878B"/>
<path d="M52.266 50.8148C51.7604 50.628 51.5845 50.562 51.1998 50.4191C50.8151 50.2762 50.4744 50.0674 50.4744 49.7597C50.4744 49.4519 50.7602 49.1112 51.3427 49.1112C51.8483 49.1112 52.1561 49.309 52.3319 49.6608C52.3759 49.7487 52.4748 49.7707 52.5517 49.7267L53.6728 49.0782C53.7498 49.0343 53.7717 48.9353 53.7278 48.8584C53.42 48.3198 52.8155 47.6384 51.3537 47.6384C49.5622 47.6384 48.6389 48.6716 48.6389 49.8146C48.6389 50.9577 49.5732 51.4963 50.4305 51.837C51.3977 52.2327 51.4636 52.2546 51.5845 52.2986C51.8813 52.4195 52.244 52.6064 52.244 52.9471C52.244 53.2878 51.8483 53.5955 51.2438 53.5955C50.6832 53.5955 50.0458 53.3647 49.782 52.7163C49.749 52.6283 49.6391 52.5844 49.5512 52.6393L48.4191 53.2878C48.3531 53.3318 48.3202 53.4087 48.3531 53.4856C48.6829 54.3429 49.6611 55.1013 51.2438 55.1013C52.9584 55.1013 54.1015 54.1891 54.1015 52.9031C54.1015 51.6172 53.2222 51.1665 52.266 50.8148Z" fill="#87878B"/>
<path d="M58.7067 49.342C59.4211 49.342 59.9487 49.5619 60.4433 49.9136C60.5203 49.9685 60.6302 49.9465 60.6741 49.8696L61.3336 48.7265C61.3775 48.6496 61.3556 48.5617 61.2786 48.5177C60.5972 48.0561 59.7509 47.6274 58.6078 47.6274C57.4757 47.6274 56.4316 47.9352 55.6842 48.6936C54.9368 49.441 54.5961 50.3312 54.5961 51.3864C54.5961 52.6613 55.1236 53.4747 55.6952 54.0462C56.2667 54.6177 57.2999 55.1013 58.6188 55.1013C59.8058 55.1013 60.6851 54.6067 61.2896 54.2111C61.3556 54.1671 61.3775 54.0682 61.3336 54.0022L60.6851 52.8702C60.6412 52.7932 60.5312 52.7602 60.4543 52.8152C60.0256 53.123 59.4102 53.3867 58.7177 53.3867C57.9374 53.3867 56.5195 52.9471 56.5195 51.3644C56.5195 49.7817 57.9264 49.342 58.7067 49.342Z" fill="#87878B"/>
<path d="M91.0424 53.5186C90.4049 53.5186 89.8004 53.3648 89.3607 53.013C88.9211 52.6613 88.7123 52.2986 88.7123 51.87H94.4056C94.4935 51.87 94.5705 51.793 94.5705 51.7051C94.5375 50.0125 93.988 49.2211 93.4604 48.6826C92.9108 48.133 91.9766 47.6274 90.7456 47.6274C89.5146 47.6274 88.5694 48.0781 87.9209 48.7155C87.2834 49.353 86.7998 50.1664 86.7998 51.3974C86.7998 52.6284 87.2944 53.4417 87.8989 54.0462C88.5034 54.6507 89.4926 55.1013 90.9105 55.1013C92.2514 55.1013 93.3834 54.6287 94.1968 53.6945C94.2627 53.6176 94.2408 53.4967 94.1528 53.4527L93.0207 52.7932C92.9658 52.7602 92.8889 52.7602 92.8339 52.8152C92.2734 53.3428 91.5589 53.5186 91.0424 53.5186ZM90.7346 49.1662C91.6469 49.1662 92.4822 49.7157 92.6141 50.7049H88.7782C89.031 49.6388 89.8223 49.1662 90.7346 49.1662Z" fill="#87878B"/>
</g>
<defs>
<clipPath id="clip0">
<rect width="100" height="100" fill="white"/>
</clipPath>
</defs>
</svg>
